<svg width="598" height="250" viewBox="0 0 598 250" fill="none" xmlns="http://www.w3.org/2000/svg">
<path d="M91.065 43.7459H64.9348L56.0473 60.4561H50.6001L82.8327 0.823678H87.6246L99.1334 60.4561H94.1776L91.065 43.7459ZM67.1874 39.4455H90.2458L84.3481 7.13095L67.1874 39.4455Z" fill="#3831A0"/>
<path d="M151.721 41.8619C150.329 48.0054 147.503 52.8246 143.243 56.3195C138.984 59.7872 133.782 61.4391 127.639 61.2752C122.315 61.166 118.069 59.282 114.902 55.6233C111.762 51.9372 110.069 46.9815 109.823 40.7561C109.741 38.6264 109.837 36.5103 110.11 34.4079L111.215 27.1996C112.062 21.7114 113.755 16.8513 116.294 12.6191C118.861 8.38695 121.973 5.20601 125.632 3.07628C129.291 0.946547 133.318 -0.077362 137.714 0.0045507C143.394 0.113768 147.83 1.91585 151.025 5.41079C154.22 8.90573 155.79 13.6157 155.735 19.5407L150.779 19.4998C150.779 14.7215 149.633 11.0218 147.339 8.4006C145.045 5.75209 141.755 4.37323 137.468 4.26401C132.062 4.12749 127.448 6.148 123.625 10.3255C119.83 14.4758 117.359 20.2233 116.212 27.5682L114.983 35.7594L114.82 39.4455C114.765 42.6674 115.229 45.6572 116.212 48.4149C117.222 51.1727 118.724 53.2751 120.717 54.7222C122.711 56.1693 125.1 56.9339 127.885 57.0158C132.636 57.1796 136.608 55.9919 139.803 53.4526C142.998 50.886 145.346 47.0361 146.847 41.9029L151.721 41.8619Z" fill="#3831A0"/>
<path d="M203.818 60.4561H198.78L203.777 31.8686H170.848L165.851 60.4561H160.855L171.217 0.823678H176.213L171.544 27.6091H204.473L209.142 0.823678H214.221L203.818 60.4561Z" fill="#3831A0"/>
<path d="M255.873 31.8686H228.842L224.583 56.1966H255.709L254.972 60.4561H218.849L229.211 0.823678H265.129L264.351 5.12409H233.47L229.538 27.6091H256.61L255.873 31.8686Z" fill="#3831A0"/>
<path d="M302.604 0.823678L314.768 53.3297L345.24 0.823678H351.998L341.636 60.4561H336.639L341.185 34.285L346.059 8.48251L315.71 60.4561H311.861L299.492 8.07295L295.273 34.5307L290.768 60.4561H285.771L296.133 0.823678H302.604Z" fill="#3831A0"/>
<path d="M362.687 60.4561H357.691L368.053 0.823678H373.049L362.687 60.4561Z" fill="#3831A0"/>
<path d="M421.951 60.4561H417.118L392.667 9.3426L383.78 60.4561H378.742L389.104 0.823678H393.937L418.429 51.9781L427.316 0.823678H432.272L421.951 60.4561Z" fill="#3831A0"/>
<path d="M479.863 60.4561H474.826L479.822 31.8686H446.894L441.897 60.4561H436.9L447.262 0.823678H452.259L447.59 27.6091H480.519L485.188 0.823678H490.266L479.863 60.4561Z" fill="#3831A0"/>
<path d="M529.871 43.7459H503.741L494.853 60.4561H489.406L521.639 0.823678H526.431L537.94 60.4561H532.984L529.871 43.7459ZM505.994 39.4455H529.052L523.154 7.13095L505.994 39.4455Z" fill="#3831A0"/>
<path d="M71.075 154.013H33.7984V185.468H69.3359L70.3189 172.311H87.1047V202.405H0V189.173L11.7198 186.904V107.89L0 105.622V92.314H86.9535V122.483H70.0164L69.0335 109.327H33.7984V137.001H71.075V154.013Z" fill="#D60246"/>
<path d="M182.527 127.473H165.968L163.094 112.351C161.179 111.141 158.381 110.083 154.702 109.175C151.022 108.268 147.115 107.814 142.982 107.814C136.933 107.814 132.245 109.1 128.918 111.671C125.641 114.191 124.003 117.468 124.003 121.5C124.003 125.23 125.717 128.305 129.145 130.725C132.623 133.094 138.596 135.614 147.065 138.286C159.213 141.663 168.412 146.124 174.663 151.669C180.964 157.214 184.115 164.498 184.115 173.521C184.115 182.947 180.384 190.382 172.924 195.826C165.464 201.271 155.634 203.993 143.435 203.993C134.715 203.993 126.826 202.606 119.769 199.834C112.762 197.061 106.915 193.23 102.227 188.341V165.355H119.315L121.659 181.007C123.877 182.821 126.876 184.333 130.657 185.543C134.488 186.703 138.747 187.282 143.435 187.282C149.484 187.282 154.071 186.047 157.197 183.577C160.372 181.107 161.96 177.806 161.96 173.672C161.96 169.438 160.448 166.035 157.424 163.465C154.45 160.894 149.207 158.474 141.696 156.206C128.641 152.425 118.761 147.939 112.057 142.747C105.352 137.555 102 130.448 102 121.425C102 112.502 105.781 105.218 113.342 99.5728C120.903 93.8767 130.405 90.953 141.848 90.8018C150.316 90.8018 158.028 92.0872 164.985 94.658C171.941 97.2288 177.788 100.657 182.527 104.941V127.473Z" fill="#D60246"/>
<path d="M283.015 129.439H266.607L264.339 114.771C262.171 112.603 259.424 110.889 256.097 109.629C252.82 108.369 248.939 107.739 244.453 107.739C234.875 107.739 227.49 111.217 222.298 118.173C217.157 125.13 214.586 134.203 214.586 145.393V149.25C214.586 160.44 217.157 169.539 222.298 176.545C227.44 183.552 234.699 187.056 244.075 187.056C248.41 187.056 252.367 186.425 255.946 185.165C259.575 183.905 262.373 182.191 264.339 180.024L266.607 165.355H283.015V187.131C278.579 192.273 272.908 196.381 266.002 199.456C259.147 202.48 251.459 203.993 242.94 203.993C228.171 203.993 216.073 198.876 206.647 188.643C197.221 178.411 192.507 165.279 192.507 149.25V145.545C192.507 129.565 197.195 116.434 206.571 106.151C215.947 95.8678 228.07 90.7262 242.94 90.7262C251.459 90.7262 259.147 92.2888 266.002 95.4141C272.857 98.489 278.528 102.572 283.015 107.663V129.439Z" fill="#D60246"/>
<path d="M402.708 202.405V189.173L414.428 186.904V107.89L402.708 105.622V92.314H448.302V105.622L436.506 107.89V185.468H467.583L468.641 171.631H485.503V202.405H402.708Z" fill="#D60246"/>
<path d="M492.308 189.173L500.171 188.038L533.667 92.314H556.275L589.544 188.038L597.408 189.173V202.405H559.905V189.173L567.541 187.812L562.702 172.689H527.014L522.174 187.812L529.811 189.173V202.405H492.308V189.173ZM532.231 156.433H557.485L545.085 117.644H544.631L532.231 156.433Z" fill="#D60246"/>
<path d="M289.461 236.444L304.912 209.938C304.104 209.212 303.888 207.996 304.456 207.02C305.025 206.045 306.19 205.634 307.22 205.979L311.343 198.906C305.522 193.797 300.993 187.297 298.254 179.994C294.502 169.992 294.242 158.92 297.522 148.816C297.921 147.587 299.241 146.914 300.47 147.313C301.699 147.712 302.372 149.032 301.973 150.261C295.84 169.155 303.865 190.141 321.055 200.161C341.342 211.987 367.467 205.103 379.293 184.816C391.119 164.53 384.235 138.404 363.948 126.578C346.74 116.548 325.191 119.645 311.545 134.11C310.658 135.05 309.177 135.093 308.237 134.207C307.297 133.32 307.254 131.839 308.141 130.899C315.342 123.266 325.055 118.197 335.491 116.625C346.087 115.029 357.03 117.129 366.305 122.535C388.821 135.66 396.461 164.657 383.336 187.173C376.774 198.432 366.243 205.97 354.539 209.054C345.622 211.404 336.024 211.164 326.98 208.016L322.878 215.054C323.948 215.72 324.303 217.12 323.664 218.217C323.338 218.775 322.818 219.149 322.239 219.301C321.68 219.448 321.068 219.388 320.525 219.091L305.097 245.558C303.855 247.688 301.86 249.114 299.638 249.7C297.395 250.291 294.919 250.025 292.754 248.763C288.444 246.25 286.966 240.724 289.461 236.444ZM321.855 207.516L314.306 203.116L311.287 208.294L318.837 212.695L321.855 207.516ZM295.111 244.72C297.193 245.933 299.858 245.252 301.053 243.201L316.48 216.737L308.931 212.337L293.504 238.801C292.309 240.852 293.03 243.507 295.111 244.72Z" fill="#FEA431"/>
<path d="M301.63 139.634L301.666 139.572C302.313 138.453 303.745 138.072 304.863 138.719C305.981 139.366 306.363 140.798 305.716 141.916L305.673 141.991C305.347 142.549 304.826 142.923 304.247 143.075C303.668 143.228 303.031 143.16 302.473 142.834C301.356 142.183 300.979 140.751 301.63 139.634Z" fill="#FEA431"/>
<path d="M333.323 128.524C352.537 123.462 372.287 134.974 377.349 154.188C382.412 173.402 370.899 193.152 351.685 198.215C332.472 203.277 312.721 191.764 307.659 172.551C302.596 153.337 314.109 133.587 333.323 128.524ZM350.493 193.689C367.211 189.284 377.229 172.099 372.824 155.38C368.419 138.662 351.234 128.644 334.515 133.05C317.797 137.455 307.779 154.64 312.184 171.358C316.589 188.077 333.774 198.094 350.493 193.689Z" fill="#FEA431"/>
<path d="M276.793 134.708C278.042 134.378 279.322 135.124 279.652 136.374L280.393 139.187C280.722 140.436 279.976 141.716 278.726 142.045C277.477 142.375 276.197 141.629 275.867 140.379L275.126 137.567C274.797 136.317 275.543 135.037 276.793 134.708Z" fill="#FEA431"/>
<path d="M280.344 148.187C281.594 147.857 282.874 148.603 283.203 149.853L283.944 152.666C284.273 153.915 283.527 155.195 282.278 155.524C281.028 155.854 279.748 155.108 279.419 153.858L278.678 151.046C278.349 149.796 279.095 148.516 280.344 148.187Z" fill="#FEA431"/>
<path d="M270.794 145L273.606 144.259C274.856 143.93 276.136 144.676 276.465 145.925C276.794 147.175 276.048 148.455 274.798 148.784L271.986 149.525C270.736 149.854 269.456 149.108 269.127 147.859C268.798 146.609 269.544 145.329 270.794 145Z" fill="#FEA431"/>
<path d="M284.272 141.448L287.085 140.707C288.335 140.378 289.614 141.124 289.944 142.374C290.273 143.623 289.527 144.903 288.277 145.232L285.465 145.973C284.215 146.303 282.935 145.557 282.606 144.307C282.277 143.057 283.023 141.778 284.272 141.448Z" fill="#FEA431"/>
<path d="M386.724 202.554C387.974 202.225 389.254 202.971 389.583 204.22L390.324 207.033C390.654 208.283 389.907 209.562 388.658 209.892C387.408 210.221 386.128 209.475 385.799 208.225L385.058 205.413C384.729 204.163 385.475 202.883 386.724 202.554Z" fill="#FEA431"/>
<path d="M390.276 216.032C391.525 215.703 392.805 216.449 393.135 217.699L393.876 220.511C394.205 221.761 393.459 223.041 392.209 223.37C390.96 223.699 389.68 222.953 389.35 221.704L388.609 218.891C388.28 217.641 389.026 216.362 390.276 216.032Z" fill="#FEA431"/>
<path d="M380.725 212.846L383.538 212.105C384.787 211.775 386.067 212.521 386.396 213.771C386.726 215.021 385.98 216.301 384.73 216.63L381.917 217.371C380.668 217.7 379.388 216.954 379.059 215.704C378.729 214.455 379.475 213.175 380.725 212.846Z" fill="#FEA431"/>
<path d="M394.204 209.294L397.016 208.553C398.266 208.224 399.546 208.97 399.875 210.22C400.204 211.469 399.458 212.749 398.209 213.078L395.396 213.819C394.146 214.149 392.867 213.403 392.537 212.153C392.208 210.903 392.954 209.624 394.204 209.294Z" fill="#FEA431"/>
</svg>
